<svg id="logo" xmlns="http://www.w3.org/2000/svg" viewBox="0 0 2446 1024"><defs><style>.cls-1{fill:#fff;}</style></defs><title>campaign-zero-white</title><path class="cls-1" d="M509.8,131.9c106.43,0,183.35,35.83,255,98,9.48,8.43,9.48,21.07,1.05,29.5l-46.36,47.42c-7.38,9.48-16.86,9.48-26.34,0-49.53-43.2-117-70.6-182.3-70.6-150.68,0-264.49,126.45-264.49,274S361.22,783.11,511.91,783.11c76.92,0,130.66-30.56,181.24-69.55,9.48-7.38,19-6.32,25.29-1.05l48.47,47.42c8.43,7.38,6.32,21.08-1.05,28.45C694.2,857.92,603.58,890.59,509.8,890.59,299.05,890.59,129.4,723,129.4,512.3A379.56,379.56,0,0,1,509.8,131.9Z"/><path class="cls-1" d="M515,296.62c-119.18,0-213.93,95.94-213.93,215.12S395.82,725.67,515,725.67s214.52-94.75,214.52-213.93S634.18,296.62,515,296.62Zm0,77.47a134.52,134.52,0,0,1,65.71,17.18L395.16,576.82a135.32,135.32,0,0,1-16.62-65.08C378.54,436.66,439.92,374.09,515,374.09Zm0,274.12a135.38,135.38,0,0,1-72.58-21.07L630.79,438.77a136.35,136.35,0,0,1,21.28,73C652.06,586.82,590.09,648.2,515,648.2Z"/><path class="cls-1" d="M995.37,297.5c27.64,0,47.61,9.3,66.22,25.45a5.09,5.09,0,0,1,.27,7.66l-12,12.31c-1.92,2.46-4.38,2.46-6.84,0-12.86-11.22-30.37-18.33-47.34-18.33-39.13,0-68.68,32.84-68.68,71.15s29.83,70.87,69,70.87c20,0,33.93-7.94,47.07-18.06,2.46-1.92,4.93-1.64,6.57-.27l12.59,12.31c2.19,1.92,1.64,5.47-.27,7.39-18.61,18.06-42.14,26.54-66.49,26.54-54.73,0-98.78-43.51-98.78-98.24A98.56,98.56,0,0,1,995.37,297.5Z"/><path class="cls-1" d="M1075.27,484.66l84-184.16a6.4,6.4,0,0,1,4.65-3h2.74a6.4,6.4,0,0,1,4.65,3l83.46,184.16c1.64,3.56-.55,7.11-4.65,7.11h-17.24a6.37,6.37,0,0,1-6.29-4.1l-17-37.49h-89.48c-5.47,12.59-11.22,24.9-16.69,37.49a6.88,6.88,0,0,1-6.29,4.1h-17.24C1075.81,491.78,1073.62,488.22,1075.27,484.66Zm124-58-33.66-75h-1.37l-33.38,75h68.41Z"/><path class="cls-1" d="M1302.92,301.6a5.53,5.53,0,0,1,4.93-4.1h4.38c1.64,0,4.1,1.37,4.65,3l57.19,139.83h1.09l56.92-139.83a5.22,5.22,0,0,1,4.65-3h4.38a5.52,5.52,0,0,1,4.92,4.1l33.66,183.88c0.82,3.83-1.09,6.29-4.92,6.29H1457a5.68,5.68,0,0,1-5.2-3.83l-20.25-122.31h-0.82L1381.46,491.5a4.65,4.65,0,0,1-4.65,3h-4.93a4.92,4.92,0,0,1-4.65-3L1317.7,365.63h-1.09l-19.7,122.31c-0.27,1.92-2.74,3.83-4.93,3.83h-17.79c-3.83,0-5.75-2.46-5.2-6.29Z"/><path class="cls-1" d="M1519.91,305.43a5.19,5.19,0,0,1,5.2-5.2h62.39c33.66,0,61.29,27.36,61.29,60.47,0,33.93-27.64,61.57-61,61.57h-39.68v64.3a5.38,5.38,0,0,1-5.2,5.2h-17.79a5.2,5.2,0,0,1-5.2-5.2V305.43Zm65.95,90a34.86,34.86,0,0,0,34.75-35c0-18.61-15.87-32.84-34.75-32.84h-37.76v67.86h37.76Z"/><path class="cls-1" d="M1647.42,484.66l84-184.16a6.4,6.4,0,0,1,4.65-3h2.74a6.4,6.4,0,0,1,4.65,3l83.46,184.16c1.64,3.56-.55,7.11-4.65,7.11H1805a6.37,6.37,0,0,1-6.29-4.1l-17-37.49h-89.48c-5.47,12.59-11.22,24.9-16.69,37.49a6.88,6.88,0,0,1-6.29,4.1h-17.24C1648,491.78,1645.78,488.22,1647.42,484.66Zm124-58-33.66-75h-1.37l-33.38,75h68.41Z"/><path class="cls-1" d="M1854.28,305.43a5.38,5.38,0,0,1,5.2-5.2h18.06a5.38,5.38,0,0,1,5.2,5.2V486.58a5.38,5.38,0,0,1-5.2,5.2h-18.06a5.38,5.38,0,0,1-5.2-5.2V305.43Z"/><path class="cls-1" d="M2020.37,297.5c26.27,0,47.89,9.58,66.49,25.45a5.3,5.3,0,0,1,.27,7.66c-4.1,4.38-8.21,8.48-12.31,12.86-2.19,2.46-4.38,2.19-7.11-.27-12.86-11.22-29.83-18.61-46.52-18.61-38.86,0-68.68,32.84-68.68,71.15,0,38,29.83,70.87,68.68,70.87a96.33,96.33,0,0,0,41-9.3V426.65h-26.82a5,5,0,0,1-5.2-4.93V405.85a5,5,0,0,1,5.2-5.2h49.8a5.14,5.14,0,0,1,4.92,5.2c0,21.89.27,44.33,0.27,66.22a6.75,6.75,0,0,1-2.19,4.38s-28.18,18.06-67.86,18.06A98.51,98.51,0,1,1,2020.37,297.5Z"/><path class="cls-1" d="M2133.37,302.42a5.14,5.14,0,0,1,5.2-4.93h6.84l118.76,137.36h0.27V305.43a5.2,5.2,0,0,1,5.2-5.2h17.51a5.38,5.38,0,0,1,5.2,5.2V489.59a5.14,5.14,0,0,1-5.2,4.93H2280l-118.76-141.2H2161V486.58a5.2,5.2,0,0,1-5.2,5.2h-17.24a5.38,5.38,0,0,1-5.2-5.2V302.42Z"/><path class="cls-1" d="M896.81,715.55l90.3-154.06v-1.09H909.94a5.38,5.38,0,0,1-5.2-5.2V539.32a5.38,5.38,0,0,1,5.2-5.2h112.46a5.38,5.38,0,0,1,5.2,5.2v3.56L937,699.4v0.27h79.9a5.2,5.2,0,0,1,5.2,5.2v15.6a5.2,5.2,0,0,1-5.2,5.2H902a5.38,5.38,0,0,1-5.2-5.2v-4.93Z"/><path class="cls-1" d="M1062.35,539.32a5.19,5.19,0,0,1,5.2-5.2H1177a5.2,5.2,0,0,1,5.2,5.2v15.32a5.2,5.2,0,0,1-5.2,5.2h-86.47v55.82h73.06a5.38,5.38,0,0,1,5.2,5.2v15.32a5.2,5.2,0,0,1-5.2,5.2h-73.06v58.83H1177a5.2,5.2,0,0,1,5.2,5.2v15a5.2,5.2,0,0,1-5.2,5.2H1067.55a5.2,5.2,0,0,1-5.2-5.2V539.32Z"/><path class="cls-1" d="M1223.52,539.32a5.19,5.19,0,0,1,5.2-5.2h74.43c32.84,0,59.65,26,59.65,58.56,0,25.17-16.69,46-40.5,55.55l37.49,69.5c1.92,3.56,0,7.94-4.65,7.94h-21.34a5,5,0,0,1-4.38-2.46L1293,650.69H1251.7v69.78a5.38,5.38,0,0,1-5.2,5.2h-17.79a5.2,5.2,0,0,1-5.2-5.2V539.32ZM1301,627.16c17.79,0,33.38-15.05,33.38-33.93,0-17.79-15.6-32.56-33.38-32.56h-48.71v66.49H1301Z"/><path class="cls-1" d="M1489.76,531.39a98.33,98.33,0,0,1,98.51,98.78c0,54.73-43.78,98.24-98.51,98.24a97.64,97.64,0,0,1-98.24-98.24C1391.52,575.44,1435,531.39,1489.76,531.39Zm0,169.65c39.13,0,71.15-31.74,71.15-70.87,0-38.86-32-71.42-71.15-71.42-38.86,0-70.87,32.56-70.87,71.42A71.06,71.06,0,0,0,1489.76,701Z"/></svg>