<svg id="logo" xmlns="http://www.w3.org/2000/svg" viewBox="0 0 1024 1024"><defs><style>.cls-1{fill:#272727;}.cls-2{fill:#f0592a;}</style></defs><title>campaign-zero</title><path class="cls-1" d="M509.8,131.9c106.43,0,183.35,35.83,255,98,9.48,8.43,9.48,21.07,1.05,29.5l-46.36,47.42c-7.38,9.48-16.86,9.48-26.34,0-49.53-43.2-117-70.6-182.3-70.6-150.68,0-264.49,126.45-264.49,274S361.22,783.11,511.91,783.11c76.92,0,130.66-30.56,181.24-69.55,9.48-7.38,19-6.32,25.29-1.05l48.47,47.42c8.43,7.38,6.32,21.08-1.05,28.45C694.2,857.92,603.58,890.59,509.8,890.59,299.05,890.59,129.4,723,129.4,512.3A379.56,379.56,0,0,1,509.8,131.9Z"/><path class="cls-2" d="M515,296.62c-119.18,0-213.93,95.94-213.93,215.12S395.82,725.67,515,725.67s214.52-94.75,214.52-213.93S634.18,296.62,515,296.62Zm0,77.47a134.52,134.52,0,0,1,65.71,17.18L395.16,576.82a135.32,135.32,0,0,1-16.62-65.08C378.54,436.66,439.92,374.09,515,374.09Zm0,274.12a135.38,135.38,0,0,1-72.58-21.07L630.79,438.77a136.35,136.35,0,0,1,21.28,73C652.06,586.82,590.09,648.2,515,648.2Z"/></svg>